<?xml version="1.0" encoding="UTF-8" standalone="no"?>
<!-- Created with Inkscape (http://www.inkscape.org/) -->

<svg
   width="200"
   height="200"
   viewBox="0 0 200 200"
   version="1.1"
   id="svg1"
   xml:space="preserve"
   sodipodi:docname="golava.svg"
   inkscape:version="1.4 (86a8ad7, 2024-10-11)"
   xmlns:inkscape="http://www.inkscape.org/namespaces/inkscape"
   xmlns:sodipodi="http://sodipodi.sourceforge.net/DTD/sodipodi-0.dtd"
   xmlns="http://www.w3.org/2000/svg"
   xmlns:svg="http://www.w3.org/2000/svg"><sodipodi:namedview
     id="namedview1"
     pagecolor="#ffffff"
     bordercolor="#000000"
     borderopacity="0.25"
     inkscape:showpageshadow="2"
     inkscape:pageopacity="0.0"
     inkscape:pagecheckerboard="0"
     inkscape:deskcolor="#d1d1d1"
     inkscape:document-units="px"
     inkscape:zoom="1.2734375"
     inkscape:cx="126.03681"
     inkscape:cy="138.60123"
     inkscape:window-width="1920"
     inkscape:window-height="1017"
     inkscape:window-x="1912"
     inkscape:window-y="-8"
     inkscape:window-maximized="1"
     inkscape:current-layer="layer4" /><defs
     id="defs1" /><g
     inkscape:groupmode="layer"
     id="layer4"
     inkscape:label="Layer 3"
     style="display:inline"><circle
       style="display:inline;fill:#e33e2b;fill-opacity:1;stroke-width:0.581476"
       id="background"
       cx="100"
       cy="100"
       r="100" /></g><g
     inkscape:groupmode="layer"
     id="layer5"
     inkscape:label="Layer 4"><path
       id="shadow"
       style="display:inline;fill:#c32f25;fill-opacity:1;stroke-width:0.581476"
       d="m 129.2793,49.290895 -58.040497,12.65602 26.549029,23.45105 -61.778978,66.499115 59.182841,47.7583 a 100,100 0 0 0 4.808187,0.34447 100,100 0 0 0 99.569838,-93.98579 z" /></g><g
     inkscape:groupmode="layer"
     id="layer2"
     inkscape:label="Layer 1"
     style="display:inline"><path
       id="volcano"
       style="display:inline;fill:#34414a;fill-opacity:1;stroke-width:0.563468"
       d="m 101.02226,77.140735 a 19.848526,5.6318235 0 0 0 -19.173311,4.1941 c -3.32e-4,0 -0.08034,0 -0.08034,0 0,0 -13.297014,19.242305 -15.956487,22.683985 -2.659473,3.44166 -12.046213,15.01822 -14.236367,17.6777 -2.190154,2.65947 -12.202216,12.98452 -13.610171,14.54892 -1.407956,1.5644 -7.039386,5.31893 -7.665144,6.25757 -0.625759,0.93864 0.156218,2.81569 1.251294,4.38008 1.095077,1.5644 4.067475,5.4756 8.291342,8.13507 4.223868,2.65947 16.895387,7.97858 22.996533,9.23009 6.10114,1.25152 22.684204,4.06736 30.819057,4.22381 8.134854,0.15644 22.527144,-0.15732 30.349124,-1.2524 7.82198,-1.09507 18.92856,-3.44105 24.56038,-5.78765 5.63183,-2.34659 10.32571,-4.22413 13.92382,-7.04005 3.59811,-2.81591 7.35177,-6.72706 8.13397,-9.23009 0.7822,-2.50303 0.78285,-2.18964 -0.6251,-3.5976 -1.40796,-1.40796 -10.01278,-8.44751 -11.89005,-10.63766 -1.87728,-2.19016 -12.9842,-14.86229 -14.86147,-17.20888 -1.87728,-2.34659 -10.95059,-14.235765 -12.67142,-16.895235 -1.69499,-2.61952 -9.54192,-13.9429 -9.92892,-14.88347 a 19.848526,5.6318235 0 0 0 -19.62674,-4.79829 z" /><path
       id="lava"
       style="display:inline;fill:#f8b42b;fill-opacity:1;stroke-width:0.563468"
       d="m 101.02226,77.140735 a 19.848526,5.6318235 0 0 0 -19.173311,4.1941 c -3.32e-4,0 -0.08034,0 -0.08034,0 0,0 -9.038228,13.06379 -13.624479,19.460545 -0.195287,1.1334 -0.345091,2.9826 0.484233,4.08404 1.251513,1.66218 3.715366,0.95746 3.715366,0.95746 0,0 0.703946,1.76085 2.111906,2.26928 1.407954,0.50842 2.835224,0.0584 3.617419,-0.78247 0.782201,-0.84087 1.622686,-3.69602 1.916011,-4.8302 0.293324,-1.13419 1.583998,-5.553765 2.033764,-6.609735 0.44976,-1.05597 1.583666,-3.16817 2.0921,-3.65704 0.508428,-0.48888 1.05617,-0.89947 1.623266,-0.8408 0.567091,0.0587 0.821249,0.23434 1.095021,0.82098 0.273767,0.58665 0.254316,1.81877 0.430309,2.46408 0.175994,0.64531 0.743553,1.72131 1.897298,2.15152 1.15374,0.43021 2.091852,-0.0389 2.580728,-0.48863 0.488871,-0.44977 1.056266,-1.66239 1.545136,-1.87749 0.488877,-0.21511 1.036466,-0.45018 2.033765,0.39068 0.997304,0.84086 1.134046,2.36597 1.173157,2.77663 0.0391,0.41064 0.352043,4.165755 1.779553,5.456385 1.42751,1.29062 2.503078,2.26818 5.162548,2.26818 2.65947,0 4.32136,-1.03622 5.22088,-2.26818 0.89953,-1.23196 1.60398,-2.91371 1.64309,-3.891445 0.0391,-0.97775 0.27336,-2.66008 0.89912,-3.59871 0.62576,-0.93865 1.19316,-1.50501 2.05358,-1.4659 0.86041,0.0391 1.70142,0.74271 1.95563,1.66179 0.25422,0.91908 0.66492,3.12906 1.77955,3.91126 1.11463,0.782185 2.75665,0.938975 3.42152,0.19589 0.66487,-0.74308 0.88076,-1.62381 1.07631,-2.67977 0.19555,-1.05597 0.66405,-1.15301 1.03559,-1.21168 0.37155,-0.0587 1.05626,0.35168 1.54514,1.07521 0.48887,0.72353 0.99767,1.6817 1.21278,2.36613 0.2151,0.684415 1.5835,3.069955 2.24837,3.539275 0.66486,0.46932 2.09221,1.01654 3.28506,0.82099 1.19285,-0.19555 2.19021,-1.25156 2.5422,-1.77954 0.13486,-0.20228 0.2574,-0.51886 0.36538,-0.8331 -1.41789,-1.914335 -2.63329,-3.581805 -3.14199,-4.367975 -1.69499,-2.61952 -9.54192,-13.9429 -9.92892,-14.88347 a 19.848526,5.6318235 0 0 0 -19.62674,-4.79829 z" /><ellipse
       style="display:inline;fill:#c72b1e;fill-opacity:1;stroke-width:0.716117"
       id="crater-inner"
       cx="101.42153"
       cy="82.625519"
       rx="14.529583"
       ry="2.9332414" /></g><g
     inkscape:groupmode="layer"
     id="layer3"
     inkscape:label="Layer 2"
     style="fill:#ffffff"
     transform="translate(-91.897853,13.04894)"><path
       id="cloud"
       style="display:inline;fill:#ffffff;fill-opacity:1;stroke-width:0.563468"
       d="m 197.5006,20.263995 a 15.331075,15.331075 0 0 0 -11.72057,5.4707 8.4477357,8.4477357 0 0 0 -5.48831,-2.02827 8.4477357,8.4477357 0 0 0 -8.44762,8.44762 10.950768,10.950768 0 0 0 -10.9502,10.95021 10.950768,10.950768 0 0 0 10.67728,10.92049 v 0.0308 h 0.27292 7.18312 v 0.005 h 34.21526 a 10.950768,10.950768 0 0 0 0.1992,0.0198 10.950768,10.950768 0 0 0 0.17499,-0.0198 h 0.29714 v -0.033 a 10.950768,10.950768 0 0 0 10.47808,-10.89739 10.950768,10.950768 0 0 0 -10.95021,-10.9513 10.950768,10.950768 0 0 0 -0.98497,0.0704 15.331075,15.331075 0 0 0 -14.95611,-11.9847 z" /></g></svg>
